<?xml version="1.0" encoding="iso-8859-1"?>
<!-- Uploaded to: SVG Repo, www.svgrepo.com, Generator: SVG Repo Mixer Tools -->
<!DOCTYPE svg PUBLIC "-//W3C//DTD SVG 1.1//EN" "http://www.w3.org/Graphics/SVG/1.1/DTD/svg11.dtd">
<svg fill="#000000" version="1.1" id="Capa_1" xmlns="http://www.w3.org/2000/svg" xmlns:xlink="http://www.w3.org/1999/xlink" 
	 width="800px" height="800px" viewBox="0 0 344.156 344.156"
	 xml:space="preserve">
<g>
	<path d="M343.766,28.723c0-5.525-4.483-10.006-10.006-10.006H106.574c-5.531,0-10.006,4.48-10.006,10.006v194.18
		c-10.25-8.871-23.568-14.279-38.156-14.279C26.207,208.623,0,234.824,0,267.029c0,32.209,26.207,58.41,58.412,58.41
		c32.215,0,58.412-26.201,58.412-58.41c0-2.854-0.246-175.924-0.246-175.924h207.176v131.666
		c-10.229-8.795-23.487-14.148-38.008-14.148c-32.217,0-58.412,26.201-58.412,58.406c0,32.209,26.195,58.41,58.412,58.41
		c32.205,0,58.41-26.201,58.41-58.41C344.156,264.068,343.766,28.723,343.766,28.723z M58.412,305.43
		c-21.174,0-38.4-17.227-38.4-38.4c0-21.17,17.227-38.396,38.4-38.396s38.4,17.228,38.4,38.396
		C96.812,288.203,79.586,305.43,58.412,305.43z M116.578,71.094V38.728h207.176v32.365L116.578,71.094L116.578,71.094z
		 M285.746,305.43c-21.174,0-38.4-17.227-38.4-38.4c0-21.17,17.228-38.396,38.4-38.396s38.4,17.228,38.4,38.396
		C324.146,288.203,306.92,305.43,285.746,305.43z"/>
</g>
</svg>